<?xml version="1.0" encoding="UTF-8" standalone="no"?>
<!-- Generator: Adobe Illustrator 16.0.0, SVG Export Plug-In . SVG Version: 6.00 Build 0)  -->

<svg
   xmlns:dc="http://purl.org/dc/elements/1.1/"
   xmlns:cc="http://creativecommons.org/ns#"
   xmlns:rdf="http://www.w3.org/1999/02/22-rdf-syntax-ns#"
   xmlns:svg="http://www.w3.org/2000/svg"
   xmlns="http://www.w3.org/2000/svg"
   xmlns:sodipodi="http://sodipodi.sourceforge.net/DTD/sodipodi-0.dtd"
   xmlns:inkscape="http://www.inkscape.org/namespaces/inkscape"
   version="1.1"
   id="Layer_1"
   x="0px"
   y="0px"
   width="176.748"
   height="69.953003"
   viewBox="0 695.445 176.748 69.952999"
   enable-background="new 0 695.445 238.14 146.445"
   xml:space="preserve"
   inkscape:version="0.48.4 r9939"
   sodipodi:docname="logo.svg"><metadata
     id="metadata35"><rdf:RDF><cc:Work
         rdf:about=""><dc:format>image/svg+xml</dc:format><dc:type
           rdf:resource="http://purl.org/dc/dcmitype/StillImage" /><dc:title></dc:title></cc:Work></rdf:RDF></metadata><defs
     id="defs33" /><sodipodi:namedview
     pagecolor="#ffffff"
     bordercolor="#666666"
     borderopacity="1"
     objecttolerance="10"
     gridtolerance="10"
     guidetolerance="10"
     inkscape:pageopacity="0"
     inkscape:pageshadow="2"
     inkscape:window-width="640"
     inkscape:window-height="480"
     id="namedview31"
     showgrid="false"
     inkscape:zoom="1.3227513"
     inkscape:cx="88.374"
     inkscape:cy="34.9765"
     inkscape:window-x="325"
     inkscape:window-y="41"
     inkscape:window-maximized="0"
     inkscape:current-layer="Layer_1"
     fit-margin-top="0"
     fit-margin-left="0"
     fit-margin-right="0"
     fit-margin-bottom="0" /><g
     id="g3"
     transform="translate(-30.696,-38.246004)"><polygon
       points="30.696,803.644 101.348,803.644 120.948,768.617 101.58,733.691 30.696,733.691 "
       id="polygon5" /><g
       id="g7"><polygon
         points="205.951,766.777 205.951,752.346 198.796,748.343 191.664,752.298 191.664,766.777 "
         id="polygon9" /><path
         d="m 145.717,766.557 c -0.807,0.473 -1.836,0.707 -3.088,0.707 -1.063,0 -2.029,-0.234 -2.896,-0.707 -0.865,-0.473 -1.609,-1.134 -2.228,-1.982 -0.616,-0.851 -1.099,-1.86 -1.439,-3.036 -0.346,-1.178 -0.517,-2.468 -0.517,-3.874 0,-1.424 0.171,-2.729 0.517,-3.911 0.342,-1.186 0.823,-2.198 1.439,-3.038 0.617,-0.842 1.361,-1.493 2.228,-1.958 0.866,-0.463 1.832,-0.694 2.896,-0.694 1.218,0 2.233,0.22 3.05,0.657 0.815,0.438 1.472,0.983 1.97,1.634 l -2.213,2.986 c -0.31,-0.412 -0.657,-0.738 -1.044,-0.979 -0.386,-0.239 -0.87,-0.358 -1.453,-0.358 -0.55,0 -1.025,0.146 -1.43,0.438 -0.402,0.29 -0.746,0.69 -1.029,1.195 -0.282,0.507 -0.493,1.106 -0.631,1.802 -0.137,0.695 -0.203,1.438 -0.203,2.228 0,0.79 0.066,1.526 0.203,2.214 0.138,0.687 0.349,1.286 0.631,1.801 0.283,0.516 0.632,0.919 1.045,1.21 0.41,0.293 0.892,0.438 1.44,0.438 0.548,0 1.028,-0.136 1.44,-0.409 0.411,-0.275 0.736,-0.603 0.978,-0.979 l 2.291,2.856 c -0.498,0.7 -1.15,1.286 -1.957,1.759 z"
         id="path11"
         inkscape:connector-curvature="0" /><path
         d="m 157.248,766.777 -0.746,-3.321 h -4.091 l -0.749,3.321 h -4.117 l 4.426,-18.225 h 5.175 l 4.401,18.225 h -4.299 z m -2.727,-14.261 h -0.104 l -1.546,7.748 h 3.116 l -1.466,-7.748 z"
         id="path13"
         inkscape:connector-curvature="0" /><path
         d="m 170.684,752.902 c -0.31,-0.36 -0.67,-0.639 -1.08,-0.838 -0.412,-0.196 -0.84,-0.295 -1.287,-0.295 -0.463,0 -0.88,0.147 -1.249,0.438 -0.367,0.293 -0.552,0.773 -0.552,1.442 0,0.567 0.188,1.012 0.565,1.327 0.377,0.319 0.935,0.668 1.672,1.045 0.413,0.207 0.852,0.452 1.309,0.735 0.458,0.283 0.877,0.633 1.259,1.044 0.379,0.413 0.695,0.907 0.945,1.481 0.249,0.577 0.374,1.261 0.374,2.052 0,0.979 -0.154,1.845 -0.468,2.591 -0.31,0.748 -0.729,1.366 -1.256,1.855 -0.525,0.49 -1.135,0.859 -1.823,1.108 -0.688,0.25 -1.403,0.373 -2.141,0.373 -1.099,0 -2.099,-0.205 -2.999,-0.616 -0.9,-0.413 -1.626,-0.893 -2.175,-1.441 l 2.109,-3.091 c 0.396,0.412 0.851,0.743 1.363,0.991 0.516,0.251 1.039,0.375 1.571,0.375 0.496,0 0.918,-0.164 1.262,-0.491 0.344,-0.325 0.514,-0.779 0.514,-1.362 0,-0.602 -0.204,-1.075 -0.616,-1.429 -0.413,-0.352 -1.016,-0.726 -1.802,-1.12 -0.499,-0.24 -0.966,-0.506 -1.402,-0.799 -0.438,-0.292 -0.824,-0.643 -1.159,-1.055 -0.336,-0.413 -0.596,-0.892 -0.785,-1.441 -0.188,-0.548 -0.282,-1.2 -0.282,-1.956 0,-1.012 0.165,-1.884 0.502,-2.611 0.334,-0.729 0.771,-1.326 1.312,-1.789 0.542,-0.464 1.141,-0.807 1.801,-1.03 0.661,-0.221 1.326,-0.335 1.995,-0.335 0.996,0 1.888,0.162 2.678,0.485 0.789,0.325 1.448,0.769 1.983,1.331 l -2.138,3.026 z"
         id="path15"
         inkscape:connector-curvature="0" /><path
         d="m 183.091,766.777 -0.747,-3.321 h -4.093 l -0.747,3.321 h -4.118 l 4.429,-18.225 h 5.174 l 4.402,18.225 h -4.3 z m -2.728,-14.261 h -0.104 l -1.543,7.748 h 3.112 l -1.465,-7.748 z"
         id="path17"
         inkscape:connector-curvature="0" /><path
         d="m 143.742,774.548 v 14.725 H 139.7 v -14.725 h -3.348 v -3.5 h 10.733 v 3.5 h -3.343 z"
         id="path19"
         inkscape:connector-curvature="0" /><path
         d="m 156.302,789.273 -0.748,-3.322 h -4.091 l -0.746,3.322 h -4.118 l 4.428,-18.225 h 5.174 l 4.401,18.225 h -4.3 z m -2.729,-14.262 h -0.102 l -1.546,7.748 h 3.114 l -1.466,-7.748 z"
         id="path21"
         inkscape:connector-curvature="0" /><path
         d="m 162.195,789.273 v -18.225 h 4.171 v 14.412 h 4.865 v 3.812 h -9.036 z"
         id="path23"
         inkscape:connector-curvature="0" /><path
         d="m 173.082,789.273 v -18.225 h 4.17 v 14.412 h 4.864 v 3.812 h -9.034 z"
         id="path25"
         inkscape:connector-curvature="0" /><path
         d="m 183.97,789.273 v -18.225 h 8.804 v 3.629 h -4.865 v 3.578 h 4.479 v 3.395 h -4.479 v 3.916 h 5.175 v 3.705 h -9.113 v 0.002 z"
         id="path27"
         inkscape:connector-curvature="0" /><path
         d="m 203.108,789.273 -2.438,-7.26 h -1.203 v 7.26 h -3.966 v -18.225 h 5.83 c 1.763,0 3.133,0.459 4.109,1.375 0.975,0.92 1.463,2.287 1.463,4.107 0,0.668 -0.076,1.27 -0.229,1.801 -0.153,0.531 -0.354,0.986 -0.604,1.363 -0.249,0.379 -0.525,0.688 -0.834,0.926 -0.306,0.24 -0.607,0.412 -0.897,0.518 l 3.105,8.135 h -4.336 z m -0.245,-12.512 c 0,-0.463 -0.063,-0.84 -0.192,-1.131 -0.129,-0.293 -0.295,-0.523 -0.503,-0.695 -0.205,-0.172 -0.433,-0.287 -0.681,-0.348 -0.25,-0.061 -0.493,-0.09 -0.733,-0.09 h -1.286 v 4.605 h 1.208 c 0.585,0 1.097,-0.184 1.532,-0.553 0.436,-0.368 0.655,-0.964 0.655,-1.788 z"
         id="path29"
         inkscape:connector-curvature="0" /></g></g></svg>